ModelForces
version=1
nRows=4
nColumns=155
inDegrees=no

This file contains the forces exerted on a model during a simulation.

A force is a generalized force, meaning that it can be either a force (N) or a torque (Nm).

Units are S.I. units (second, meters, Newtons, ...)
Angles are in degrees.

endheader
time	glut_med1_r	glut_med2_r	glut_med3_r	glut_min1_r	glut_min2_r	glut_min3_r	semimem_r	semiten_r	bifemlh_r	bifemsh_r	sar_r	add_long_r	add_brev_r	add_mag1_r	add_mag2_r	add_mag3_r	tfl_r	pect_r	grac_r	glut_max1_r	glut_max2_r	glut_max3_r	iliacus_r	psoas_r	quad_fem_r	gem_r	peri_r	rect_fem_r	vas_med_r	vas_int_r	vas_lat_r	med_gas_r	lat_gas_r	soleus_r	tib_post_r	flex_dig_r	flex_hal_r	tib_ant_r	per_brev_r	per_long_r	per_tert_r	ext_dig_r	ext_hal_r	glut_med1_l	glut_med2_l	glut_med3_l	glut_min1_l	glut_min2_l	glut_min3_l	semimem_l	semiten_l	bifemlh_l	bifemsh_l	sar_l	add_long_l	add_brev_l	add_mag1_l	add_mag2_l	add_mag3_l	tfl_l	pect_l	grac_l	glut_max1_l	glut_max2_l	glut_max3_l	iliacus_l	psoas_l	quad_fem_l	gem_l	peri_l	rect_fem_l	vas_med_l	vas_int_l	vas_lat_l	med_gas_l	lat_gas_l	soleus_l	tib_post_l	flex_dig_l	flex_hal_l	tib_ant_l	per_brev_l	per_long_l	per_tert_l	ext_dig_l	ext_hal_l	ercspn_r	ercspn_l	intobl_r	intobl_l	extobl_r	extobl_l	femur_lat_meniscii_r.femur_lat_r.force.X	femur_lat_meniscii_r.femur_lat_r.force.Y	femur_lat_meniscii_r.femur_lat_r.force.Z	femur_lat_meniscii_r.femur_lat_r.torque.X	femur_lat_meniscii_r.femur_lat_r.torque.Y	femur_lat_meniscii_r.femur_lat_r.torque.Z	femur_lat_meniscii_r.meniscus_lat_r.force.X	femur_lat_meniscii_r.meniscus_lat_r.force.Y	femur_lat_meniscii_r.meniscus_lat_r.force.Z	femur_lat_meniscii_r.meniscus_lat_r.torque.X	femur_lat_meniscii_r.meniscus_lat_r.torque.Y	femur_lat_meniscii_r.meniscus_lat_r.torque.Z	femur_med_meniscii_r.femur_med_r.force.X	femur_med_meniscii_r.femur_med_r.force.Y	femur_med_meniscii_r.femur_med_r.force.Z	femur_med_meniscii_r.femur_med_r.torque.X	femur_med_meniscii_r.femur_med_r.torque.Y	femur_med_meniscii_r.femur_med_r.torque.Z	femur_med_meniscii_r.meniscus_med_r.force.X	femur_med_meniscii_r.meniscus_med_r.force.Y	femur_med_meniscii_r.meniscus_med_r.force.Z	femur_med_meniscii_r.meniscus_med_r.torque.X	femur_med_meniscii_r.meniscus_med_r.torque.Y	femur_med_meniscii_r.meniscus_med_r.torque.Z	femur_med_tibia_r.tibia_upper_r.force.X	femur_med_tibia_r.tibia_upper_r.force.Y	femur_med_tibia_r.tibia_upper_r.force.Z	femur_med_tibia_r.tibia_upper_r.torque.X	femur_med_tibia_r.tibia_upper_r.torque.Y	femur_med_tibia_r.tibia_upper_r.torque.Z	femur_med_tibia_r.femur_med_r.force.X	femur_med_tibia_r.femur_med_r.force.Y	femur_med_tibia_r.femur_med_r.force.Z	femur_med_tibia_r.femur_med_r.torque.X	femur_med_tibia_r.femur_med_r.torque.Y	femur_med_tibia_r.femur_med_r.torque.Z	femur_lat_tibia_r.tibia_upper_r.force.X	femur_lat_tibia_r.tibia_upper_r.force.Y	femur_lat_tibia_r.tibia_upper_r.force.Z	femur_lat_tibia_r.tibia_upper_r.torque.X	femur_lat_tibia_r.tibia_upper_r.torque.Y	femur_lat_tibia_r.tibia_upper_r.torque.Z	femur_lat_tibia_r.femur_lat_r.force.X	femur_lat_tibia_r.femur_lat_r.force.Y	femur_lat_tibia_r.femur_lat_r.force.Z	femur_lat_tibia_r.femur_lat_r.torque.X	femur_lat_tibia_r.femur_lat_r.torque.Y	femur_lat_tibia_r.femur_lat_r.torque.Z	aACL_R	pACL_R	aPCL_R	pPCL_R	aMCL_R	mMCL_R	pMCL_R	aLCL_R	mLCL_R	pLCL_R	aPCL_L	pPCL_L	aMCL_L	aLCL_L
      0.17104981	     11.11160844	     25.34930676	    140.84647162	      3.63551342	      4.05387221	      9.64226329	    243.76666773	    203.05465258	    453.96857184	    295.78174589	     86.19444121	      6.70763065	      6.01689104	     18.32649915	     14.83992053	     82.22238968	      0.00000000	      2.31834790	    101.17658084	      7.88204366	     11.83552460	     57.69143556	      7.38058949	      6.99282750	    187.90642443	     36.48015945	     72.87628946	     19.93617568	     48.60269492	     81.42068789	     61.14029527	      0.00000000	      0.00000000	      0.00000000	      0.00000000	      0.00000000	      0.00000000	     51.76519812	      0.00000000	      0.00000000	      4.21354075	     59.20978141	     16.40697778	     11.14856162	      8.12515694	      8.73618846	      3.75562705	      4.37210835	      4.71164959	     13.80167488	      6.01081645	     11.95362514	     10.27298668	      2.14313098	      8.08409607	      5.83042894	      4.17689215	      3.54137550	      5.95712248	      5.31760491	      3.16947468	      2.21140250	      5.24575498	      7.97964250	      5.99405316	     27.14107755	     18.06611985	      5.16149683	      3.58904585	      6.67499627	     16.50585423	      9.54494339	     11.02279243	     11.83872180	     23.76637699	     11.04350518	     50.77512630	     50.53149791	      5.37064353	      5.27526182	     12.89018708	      6.88736785	     18.00981705	      2.79354047	      8.39971917	      2.62777028	     35.34850725	     35.34850725	     13.10691933	     13.10691933	     30.50532880	     30.50532880	    -44.94456282	     86.50019712	     -0.68064720	     -1.92609602	     -0.70813675	     33.88408761	     44.94456282	    -86.50019712	      0.68064720	      2.18109569	      1.12312096	      2.01610741	      0.00000000	      0.00000000	      0.00000000	      0.00000000	      0.00000000	      0.00000000	      0.00000000	      0.00000000	      0.00000000	      0.00000000	      0.00000000	      0.00000000	    222.04708115	   -942.92507105	    367.65559572	    -23.57796919	     -3.05604865	      6.34483853	   -222.04708115	    942.92507105	   -367.65559572	     15.66200687	    150.67887342	    377.04380157	     76.41142737	   -308.45818175	    -85.38070999	     11.17500962	      2.14158261	      2.28252859	    -76.41142737	    308.45818175	     85.38070999	     -7.65860387	    -36.01687927	    123.24706701	      0.00000000	      0.00000000	   1317.89451104	    927.00357213	      0.20271541	      4.74678581	      0.00000000	      0.00000000	      0.00000000	      0.00000000	      0.00000000	      0.00000000	      0.00000001	      0.00000000
      0.17137080	     11.09639232	     25.33988118	    140.83865200	      3.63106489	      4.04877979	      9.63644493	    244.88190201	    203.72036861	    455.68273677	    296.53746743	     86.09444901	      6.69903471	      6.00958825	     18.32030325	     14.83418028	     82.21613648	      0.00000000	      2.31550472	    101.23619821	      7.87174586	     11.82002980	     57.68349048	      7.37118575	      6.98366779	    187.90260992	     36.47818102	     72.87086297	     19.85713875	     48.60355527	     81.47748519	     61.09468910	      0.00000000	      0.00000000	      0.00000000	      0.00000000	      0.00000000	      0.00000000	     51.96665657	      0.00000000	      0.00000000	     22.99777505	     59.23587531	     16.44192630	     11.13329105	      8.11477920	      8.72489568	      3.75102780	      4.36707945	      4.70521034	     13.78079527	      6.00264333	     11.93582194	     10.26011715	      2.14051871	      8.07365136	      5.82335531	      4.17158169	      3.53676792	      5.94876815	      5.31242344	      3.16556566	      2.20865955	      5.23903031	      7.96938950	      5.98622985	     27.12197635	     18.04434180	      5.15503793	      3.58589757	      6.66462711	     16.48144187	      9.53239305	     11.00806185	     11.82291427	     23.72881748	     11.02601613	     50.69600755	     50.49745036	      5.36181628	      5.26669438	     12.87149960	      6.87685008	     17.98744349	      2.79018470	      8.38661099	      2.62371223	     35.30512097	     35.30512097	     13.08952446	     13.08952446	     30.48957557	     30.48957557	    -39.19722736	     85.88233842	     -0.81844435	     -1.91031190	     -0.52699077	     33.69431849	     39.19722736	    -85.88233842	      0.81844435	      2.16028056	      0.97930047	      1.79659385	      0.00000000	      0.00000000	      0.00000000	      0.00000000	      0.00000000	      0.00000000	      0.00000000	      0.00000000	      0.00000000	      0.00000000	      0.00000000	      0.00000000	    218.40785960	   -940.73785084	    367.65813493	    -23.52411202	     -2.95834916	      6.35257684	   -218.40785960	    940.73785084	   -367.65813493	     15.60119413	    150.60341659	    376.13788807	     75.32424071	   -310.46247221	    -85.15682929	     11.22111467	      2.09746945	      2.29477380	    -75.32424071	    310.46247221	     85.15682929	     -7.69852840	    -35.89281864	    124.03125176	      0.00000000	      0.00000000	   1321.58954329	    931.16013209	     -0.72885511	      4.44543036	      0.00000000	      0.00000000	      0.00000000	      0.00000000	      0.00000000	      0.00000000	      0.00000001	      0.00000000
      0.17169178	     11.08124186	     25.33049607	    140.83086557	      3.62663527	      4.04370917	      9.63065209	    245.95739334	    204.35912272	    457.37616808	    297.17683464	     85.97849041	      6.69047578	      6.00231643	     18.31413398	     14.82846492	     82.20991015	      0.00000000	      2.31267366	    101.27768914	      7.86149243	     11.80460174	     57.67557944	      7.36182260	      6.97454792	    187.89881172	     36.47621104	     72.86546030	     19.77244823	     48.59399729	     81.52549191	     61.03175669	      0.00000000	      0.00000000	      0.00000000	      0.00000000	      0.00000000	      0.00000000	     52.16580911	      0.00000000	      0.00000000	     21.80462766	     59.26361681	     16.47752360	     11.11808636	      8.10444601	      8.71365150	      3.74644811	      4.36207210	      4.69879887	     13.76000224	      5.99450548	     11.91809355	     10.24730268	      2.13791752	      8.06325160	      5.81631167	      4.16629405	      3.53218024	      5.94044981	      5.30726435	      3.16167331	      2.20592830	      5.23233465	      7.95918071	      5.97844033	     27.10295826	     18.02265879	      5.14860665	      3.58276313	      6.65429994	     16.45713252	      9.51989724	     10.99339534	     11.80717576	     23.69140473	     11.00859557	     50.61720967	     50.46354820	      5.35302555	      5.25816306	     12.85289172	      6.86637602	     17.96516249	      2.78684355	      8.37355188	      2.61966926	     35.26191927	     35.26191927	     13.07220461	     13.07220461	     30.47389111	     30.47389111	    -35.97270981	     84.00642229	     -0.34555908	     -1.87296796	     -0.63958985	     32.97524068	     35.97270981	    -84.00642229	      0.34555908	      2.13204425	      0.89307544	      1.67799811	      0.00000000	      0.00000000	      0.00000000	      0.00000000	      0.00000000	      0.00000000	      0.00000000	      0.00000000	      0.00000000	      0.00000000	      0.00000000	      0.00000000	    214.56746105	   -938.83762550	    368.25183613	    -23.49937608	     -2.85791389	      6.35017209	   -214.56746105	    938.83762550	   -368.25183613	     15.55308021	    150.76061018	    375.34957502	     74.61427780	   -311.51145030	    -85.03491474	     11.24781817	      2.06425681	      2.32655659	    -74.61427780	    311.51145030	     85.03491474	     -7.71894999	    -35.81911524	    124.42524750	      0.00000000	      0.00000000	   1325.39881247	    935.67122178	     -1.70783499	      4.15986718	      0.00000000	      0.00000000	      0.00000000	      0.00000000	      0.00000000	      0.00000000	      0.00000001	      0.00000000
      0.17259870	     11.03878802	     25.30419655	    140.80904390	      3.61422130	      4.02949953	      9.61442189	    248.79237105	    206.04281445	    462.02935960	    298.58464148	     85.61251509	      6.66649197	      5.98193685	     18.29684620	     14.81245027	     82.19246242	      0.00000000	      2.30473977	    101.33485118	      7.83276042	     11.76136948	     57.65341027	      7.33558578	      6.94899442	    187.88816688	     36.47069037	     72.85032330	     19.50440142	     48.54392787	     81.64764690	     60.78231186	      0.00000000	      0.00000000	      0.00000000	      0.00000000	      0.00000000	      0.00000000	     52.59245005	      0.00000000	      0.00000000	     20.47137975	     59.34650979	     16.55645386	     11.07548056	      8.07548964	      8.68214298	      3.73361359	      4.34804004	      4.68083290	     13.70171840	      5.97170206	     11.86840530	     10.21139214	      2.13062767	      8.03410933	      5.79657158	      4.15147681	      3.51932499	      5.91714032	      5.29280794	      3.15076526	      2.19827422	      5.21357233	      7.93057402	      5.95661311	     27.04967041	     17.96190553	      5.13058388	      3.57398130	      6.62534689	     16.38900178	      9.48488420	     10.95230040	     11.76307834	     23.58648657	     10.95974319	     50.39629653	     50.36854116	      5.32838455	      5.23425279	     12.80074424	      6.83701733	     17.90270647	      2.77748185	      8.33691801	      2.60832721	     35.14084767	     35.14084767	     13.02367168	     13.02367168	     30.42994516	     30.42994516	    -29.38201056	     80.16287717	     -1.66706021	     -1.77273941	      0.03102218	     31.50432702	     29.38201056	    -80.16287717	      1.66706021	      1.98295546	      0.73107181	      1.43694062	      0.00000000	      0.00000000	      0.00000000	      0.00000000	      0.00000000	      0.00000000	      0.00000000	      0.00000000	      0.00000000	      0.00000000	      0.00000000	      0.00000000	    204.08112981	   -931.82601079	    367.92143644	    -23.32359012	     -2.57477414	      6.34963053	   -204.08112981	    931.82601079	   -367.92143644	     15.36628741	    150.40208371	    372.46294652	     73.34191727	   -319.14567372	    -85.96266647	     11.49532708	      1.99353955	      2.42760443	    -73.34191727	    319.14567372	     85.96266647	     -7.89514520	    -36.14004210	    127.41658563	      0.00000000	      0.00000000	   1336.08067920	    948.23059746	     -4.57718732	      3.21713094	      0.00000000	      0.00000000	      0.00000000	      0.00000000	      0.00000000	      0.00000000	      0.00000001	      0.00000000
